<svg xmlns="http://www.w3.org/2000/svg" viewBox="0 0 716 200" role="img" aria-label="AX Tech logo"><title>AX Tech logo</title><rect x="6" y="6" width="188" height="188" fill="none" stroke="#EFEDE6" stroke-width="12"/><g fill="none" stroke="#EFEDE6" stroke-width="20" stroke-linejoin="miter"><polyline points="28,160 60,54 92,160"/><line x1="39" y1="124" x2="81" y2="124"/><line x1="120" y1="54" x2="168" y2="160"/><line x1="168" y1="54" x2="120" y2="160"/></g><rect x="166" y="16" width="20" height="20" fill="#FF4F1A"/><g transform="translate(256 56) scale(0.8)"><g fill="none" stroke="#EFEDE6" stroke-width="16" stroke-linejoin="miter"><polyline points="9,110 44,22 79,110"/><line x1="22" y1="78" x2="66" y2="78"/><line x1="104" y1="0" x2="168" y2="110"/><line x1="168" y1="0" x2="104" y2="110"/><line x1="233" y1="8" x2="305" y2="8"/><line x1="269" y1="8" x2="269" y2="110"/><polyline points="391,8 335,8 335,102 391,102"/><line x1="335" y1="55" x2="383" y2="55"/><polyline points="479,8 421,8 421,102 479,102"/><line x1="509" y1="0" x2="509" y2="110"/><line x1="565" y1="0" x2="565" y2="110"/><line x1="509" y1="55" x2="565" y2="55"/></g></g></svg>
